<?xml version="1.0" encoding="iso-8859-1"?>
<!-- Generator: Adobe Illustrator 19.0.0, SVG Export Plug-In . SVG Version: 6.00 Build 0)  -->
<svg xmlns="http://www.w3.org/2000/svg" xmlns:xlink="http://www.w3.org/1999/xlink" version="1.1" id="Layer_1" x="0px" y="0px" viewBox="0 0 512 512" style="enable-background:new 0 0 512 512;" xml:space="preserve">
<g>
	<polygon style="fill:#D4C8B9;" points="196.123,390.834 154.117,390.834 154.117,421.579  "/>
	<polygon style="fill:#D4C8B9;" points="315.106,390.834 357.111,390.834 357.111,421.579  "/>
</g>
<g>
	<path style="fill:#FF8C01;" d="M51.391,282H39.284c-8.841,0-16.008,7.168-16.008,16.009v26.68c0,8.841,7.167,16.008,16.008,16.008   h12.107V282z"/>
	<path style="fill:#FF8C01;" d="M460.05,282h12.106c8.842,0,16.009,7.168,16.009,16.009v26.68c0,8.841-7.166,16.008-16.009,16.008   H460.05V282z"/>
</g>
<g>
	<path style="fill:#F26D0A;" d="M23.276,299.309v25.379c0,8.841,7.167,16.008,16.008,16.008h12.107v-25.378H39.284   C30.443,315.318,23.276,308.15,23.276,299.309z"/>
	<path style="fill:#F26D0A;" d="M472.156,315.318H460.05v25.379h12.106c8.842,0,16.009-7.167,16.009-16.008v-25.38   C488.165,308.15,480.998,315.318,472.156,315.318z"/>
</g>
<g>
	<circle style="fill:#C2C6D3;" cx="36.345" cy="195.473" r="28.716"/>
	<circle style="fill:#C2C6D3;" cx="475.887" cy="195.473" r="28.717"/>
</g>
<g>
	<path style="fill:#A9ADBF;" d="M32.612,195.478c0-11.383,6.623-21.217,16.225-25.863c-18.99-9.188-41.206,4.672-41.206,25.863   c0,21.184,22.21,35.057,41.206,25.864C39.235,216.695,32.612,206.86,32.612,195.478z"/>
	<path style="fill:#A9ADBF;" d="M488.377,169.615c-3.777-1.827-8.012-2.852-12.49-2.852c-15.861,0-28.717,12.855-28.717,28.715   s12.856,28.717,28.717,28.717c4.477,0,8.713-1.025,12.49-2.853C466.764,210.883,466.79,180.059,488.377,169.615z"/>
</g>
<path style="fill:#05C472;" d="M413.029,231.308H98.201c-26.523,0-48.023,21.501-48.023,48.024v82.709h410.876v-82.709  C461.052,252.809,439.551,231.308,413.029,231.308z"/>
<path style="fill:#15CE7A;" d="M413.029,231.308H252.864c-8.406,22.545-13.01,46.942-13.01,72.415  c0,20.25,2.916,39.817,8.329,58.317h212.87v-82.709C461.052,252.809,439.551,231.308,413.029,231.308z"/>
<path style="fill:#09A860;" d="M123.246,231.308H98.201c-26.523,0-48.023,21.501-48.023,48.024v82.709h25.045v-82.709  C75.221,252.809,96.723,231.308,123.246,231.308z"/>
<path style="fill:#0B9955;" d="M335.854,227.978c-2.147-2.905,7.988-2.032-156.45-2.032c-1.589,0-3.084,0.753-4.028,2.032  c-0.944,1.277-1.226,2.927-0.76,4.447l11.601,37.808c0.646,2.104,2.589,3.539,4.789,3.539h129.221c2.199,0,4.142-1.437,4.788-3.539  l11.601-37.808C337.079,230.905,336.797,229.255,335.854,227.978z"/>
<path style="fill:#088446;" d="M211.929,270.233l-11.601-37.808c-0.987-3.218,1.423-6.479,4.789-6.479h-25.713  c-1.589,0-3.084,0.753-4.028,2.032c-0.944,1.277-1.226,2.927-0.76,4.447l11.601,37.808c0.646,2.104,2.589,3.539,4.789,3.539h25.713  C214.517,273.772,212.574,272.336,211.929,270.233z"/>
<g>
	<circle style="fill:#C8E5FC;" cx="112.092" cy="293.94" r="29.794"/>
	<circle style="fill:#C8E5FC;" cx="398.788" cy="293.94" r="29.793"/>
</g>
<g>
	<path style="fill:#8FC8F2;" d="M107.348,293.942c0-11.981,7.075-22.303,17.271-27.034c-3.808-1.767-8.047-2.76-12.522-2.76   c-16.455,0-29.795,13.338-29.795,29.794c0,16.454,13.339,29.792,29.795,29.792c4.474,0,8.715-0.993,12.522-2.76   C114.423,316.243,107.348,305.921,107.348,293.942z"/>
	<path style="fill:#8FC8F2;" d="M394.04,293.942c0-11.981,7.074-22.303,17.27-27.034c-3.809-1.767-8.048-2.76-12.523-2.76   c-16.455,0-29.793,13.338-29.793,29.794c0,21.734,22.598,36.179,42.315,27.032C401.113,316.243,394.04,305.921,394.04,293.942z"/>
</g>
<path style="fill:#17E56A;" d="M412.598,231.308c1.749,0,3.475,0.099,5.174,0.281v-9.229c0-87.137-70.64-157.777-157.779-157.777  h-8.758c-87.139,0-157.779,70.64-157.779,157.777v9.149C96.821,231.211,75.15,231.308,412.598,231.308z"/>
<path style="fill:#36EA7F;" d="M252.864,231.308h159.734c1.749,0,3.475,0.099,5.174,0.281v-9.229  c0-43.63-17.711-83.122-46.332-111.682C316.759,132.146,273.419,176.177,252.864,231.308z"/>
<path style="fill:#0BD15B;" d="M118.501,222.361c0-84.406,66.281-153.332,149.635-157.571  C160.62,59.311,93.456,138.154,93.456,222.361v9.149c2.946-0.261,2.078-0.201,25.045-0.201V222.361z"/>
<path style="fill:#C8E5FC;" d="M259.048,100.575h-6.87c-65.57,0-123.776,52.071-123.776,125.784c0,2.766,2.243,5.009,5.009,5.009  h244.403c2.766,0,5.009-2.243,5.009-5.009v-2.009C382.824,156.101,327.299,100.575,259.048,100.575z"/>
<path style="fill:#8FC8F2;" d="M155.118,226.359v-2.009c0-64.91,50.224-118.306,113.853-123.377  c-81.095-6.456-140.569,51.032-140.569,125.386c0,2.766,2.243,5.009,5.009,5.009h26.715  C157.361,231.368,155.118,229.125,155.118,226.359z"/>
<g>
	<path style="fill:#777984;" d="M75.078,390.834v38.572c0,8.84,7.168,16.008,16.008,16.008h48.024   c8.842,0,16.009-7.167,16.009-16.008v-38.572H75.078z"/>
	<path style="fill:#777984;" d="M356.109,390.834v38.572c0,8.84,7.167,16.008,16.008,16.008h48.025   c8.84,0,16.008-7.167,16.008-16.008v-38.572H356.109z"/>
</g>
<g>
	<path style="fill:#61626D;" d="M100.123,429.406v-38.571H75.078v38.572c0,8.84,7.168,16.008,16.008,16.008h25.045   C107.291,445.414,100.123,438.247,100.123,429.406z"/>
	<path style="fill:#61626D;" d="M381.154,429.406v-38.571h-25.045v38.572c0,8.84,7.167,16.008,16.008,16.008h25.045   C388.322,445.414,381.154,438.247,381.154,429.406z"/>
</g>
<path style="fill:#C2C6D3;" d="M478.617,376.437c0,8.504-6.894,15.398-15.399,15.398H48.01c-8.505,0-15.4-6.893-15.4-15.398l0,0  c0-8.504,6.894-15.399,15.4-15.399h415.208C471.723,361.039,478.617,367.933,478.617,376.437L478.617,376.437z"/>
<path style="fill:#A9ADBF;" d="M463.218,376.436H48.01c-5.697,0-10.658-3.101-13.322-7.698c-1.312,2.267-2.077,4.892-2.077,7.699  c0,8.504,6.894,15.398,15.4,15.398h415.208c11.849,0,19.257-12.858,13.322-23.098C473.876,373.337,468.914,376.436,463.218,376.436z  "/>
<path d="M111.981,256.635c-20.571,0-37.307,16.736-37.307,37.307c0,20.57,16.736,37.305,37.307,37.305s37.306-16.735,37.306-37.305  C149.287,273.371,132.552,256.635,111.981,256.635z M111.981,316.22c-12.285,0-22.28-9.994-22.28-22.278  c0-12.286,9.995-22.28,22.28-22.28s22.279,9.995,22.279,22.28C134.26,306.226,124.265,316.22,111.981,316.22z"/>
<path d="M398.67,256.635c-20.571,0-37.306,16.736-37.306,37.307c0,20.57,16.735,37.305,37.306,37.305s37.306-16.735,37.306-37.305  C435.976,273.371,419.241,256.635,398.67,256.635z M398.67,316.22c-12.285,0-22.279-9.994-22.279-22.278  c0-12.286,9.995-22.28,22.279-22.28s22.279,9.995,22.279,22.28C420.949,306.226,410.954,316.22,398.67,316.22z"/>
<path d="M322.949,324.224H188.99c-4.149,0-7.514,3.363-7.514,7.514c0,4.149,3.364,7.514,7.514,7.514h133.957  c4.15,0,7.514-3.364,7.514-7.514C330.462,327.588,327.098,324.224,322.949,324.224z"/>
<path d="M322.949,296.21H188.99c-4.149,0-7.514,3.363-7.514,7.514c0,4.15,3.364,7.514,7.514,7.514h133.957  c4.15,0,7.514-3.363,7.514-7.514C330.462,299.574,327.098,296.21,322.949,296.21z"/>
<path d="M512,195.478c0-19.976-16.252-36.228-36.229-36.228c-24.389,0-42.006,23.828-34.512,47.246l-16.197,10.187  c-1.36-40.141-17.11-78.125-44.716-107.497c-2.841-3.023-7.597-3.171-10.621-0.329c-3.023,2.841-3.171,7.597-0.329,10.62  c25.494,27.126,40.745,62.877,40.745,104.317h-19.928c-0.302-72.138-59.074-130.733-131.282-130.733h-6.87  c-72.207,0-130.981,58.596-131.282,130.733h-19.927c0-86.832,69.398-151.698,150.266-151.698h8.758  c34.038,0,66.137,11.096,92.824,32.09c3.26,2.565,7.984,2.001,10.55-1.26c2.566-3.261,2.002-7.985-1.26-10.551  c-29.363-23.097-64.673-35.306-102.115-35.306h-8.758c-89.034,0-161.839,70.761-165.161,158.996l-15.216-9.57  c7.492-23.411-10.113-47.247-34.511-47.247C16.252,159.249,0,175.501,0,195.478c0,33.223,41.206,48.838,63.273,24.074l13.51,8.497  c-18.661,7.78-32.19,25.456-34.013,46.438h-4.606c-12.969,0-23.521,10.552-23.521,23.521v26.68  c0,12.969,10.552,23.521,23.521,23.521h4.382v6.954c-10.062,2.415-17.566,11.484-17.566,22.276  c0,12.633,10.279,22.911,22.913,22.911h19.553v31.059c0,12.969,10.552,23.521,23.521,23.521h48.024  c12.97,0,23.521-10.551,23.521-23.521v-4.016l36.948-27.043h112.07l36.948,27.043v4.016c0,12.969,10.552,23.521,23.521,23.521  h48.024c12.969,0,23.521-10.551,23.521-23.521v-31.058h19.555c12.634,0,22.912-10.279,22.912-22.911  c0-10.792-7.503-19.86-17.565-22.276v-6.954h4.592c12.969,0,23.521-10.552,23.521-23.521v-26.68  c0-12.969-10.552-23.521-23.521-23.521h-4.817c-1.804-20.756-15.063-38.278-33.413-46.183l13.915-8.752  C470.834,244.36,512,228.648,512,195.478z M36.229,216.681c-11.691,0-21.202-9.512-21.202-21.203  c0-11.69,9.511-21.201,21.202-21.201s21.202,9.511,21.202,21.201C57.432,207.169,47.92,216.681,36.229,216.681z M328.073,238.882  l-9.696,29.381H192.617l-9.695-29.381C182.924,238.882,325.028,238.882,328.073,238.882z M252.061,108.088h6.87  c63.923,0,115.962,51.852,116.26,115.706c-12.39,0-84.18,0-93.42,0l54.226-27.589c3.698-1.881,5.17-6.406,3.289-10.104  c-1.882-3.7-6.407-5.169-10.104-3.29l-80.55,40.982H201.73l54.226-27.589c3.698-1.881,5.171-6.406,3.29-10.104  c-1.882-3.699-6.407-5.171-10.104-3.29l-80.551,40.982h-32.791C136.1,159.941,188.139,108.088,252.061,108.088z M38.165,333.184  c-4.683,0-8.494-3.811-8.494-8.494v-26.68c0-4.684,3.811-8.494,8.494-8.494h4.382v43.67h-4.382V333.184z M147.488,431.409  c0,4.683-3.811,8.494-8.494,8.494H90.969c-4.683,0-8.494-3.811-8.494-8.494v-31.058h65.013  C147.488,453.138,147.488,413.895,147.488,431.409z M162.515,408.773v-8.421h11.506L162.515,408.773z M336.974,400.351h11.505v8.42  L336.974,400.351z M428.52,431.409c0,4.683-3.811,8.494-8.494,8.494h-48.024c-4.684,0-8.494-3.811-8.494-8.494  c0-29.546,0,13.666,0-31.059h65.013V431.409z M481.535,298.008v26.68c0,4.684-3.811,8.494-8.494,8.494h-4.592v-43.67h4.592  C477.725,289.514,481.535,293.325,481.535,298.008z M453.422,279.333c0,25.115,0,50.074,0,75.195H115.079  c-4.149,0-7.514,3.363-7.514,7.514s3.364,7.514,7.514,7.514h348.023c4.348,0,7.885,3.537,7.885,7.885  c0,4.348-3.537,7.884-7.885,7.884c-13.927,0-357.586,0-388.14,0H47.893c-4.348,0-7.886-3.536-7.886-7.884  c0-4.348,3.537-7.885,7.886-7.885h41.807c4.149,0,7.514-3.363,7.514-7.514s-3.364-7.514-7.514-7.514H57.573  c0-1.006,0.52-72.093,0-74.274v-0.922c0-22.337,18.173-40.511,40.511-40.511c4.989,0,64.023,0.06,69.013,0.06l12.952,39.25  c1.016,3.079,3.893,5.158,7.135,5.158h136.625c3.242,0,6.119-2.08,7.135-5.158l12.952-39.25c43.367,0,39.175,0.411,40.846-0.06  c59.188,0,6.163-0.024,32.829,0.276C437.72,241.418,453.422,258.572,453.422,279.333z M475.771,174.276  c11.691,0,21.202,9.511,21.202,21.201c0,11.691-9.511,21.203-21.202,21.203c-11.692,0-21.203-9.512-21.203-21.203  S464.079,174.276,475.771,174.276z"/>
<g>
</g>
<g>
</g>
<g>
</g>
<g>
</g>
<g>
</g>
<g>
</g>
<g>
</g>
<g>
</g>
<g>
</g>
<g>
</g>
<g>
</g>
<g>
</g>
<g>
</g>
<g>
</g>
<g>
</g>
</svg>
