<?xml version="1.0" standalone="no"?>
<!DOCTYPE svg PUBLIC "-//W3C//DTD SVG 20010904//EN"
 "http://www.w3.org/TR/2001/REC-SVG-20010904/DTD/svg10.dtd">
<svg version="1.0" xmlns="http://www.w3.org/2000/svg"
 width="500.000000pt" height="500.000000pt" viewBox="0 0 500.000000 500.000000"
 preserveAspectRatio="xMidYMid meet">

<g transform="translate(0.000000,500.000000) scale(0.100000,-0.100000)"
fill="#000000" stroke="none">
<path d="M1110 3424 c-162 -25 -270 -71 -368 -160 -113 -102 -196 -257 -209
-389 -3 -36 -8 -65 -10 -65 -3 0 -17 7 -31 16 -23 13 -27 22 -28 64 -2 176
-247 188 -271 12 -12 -87 66 -161 157 -149 23 3 49 12 59 21 22 20 45 20 62 0
11 -14 10 -18 -6 -27 -39 -21 -86 -80 -97 -123 -10 -35 -17 -44 -34 -44 -12 0
-36 -12 -53 -26 -30 -25 -31 -28 -31 -114 0 -99 16 -133 70 -145 38 -8 38 -20
0 -52 -30 -25 -39 -67 -24 -108 10 -24 58 -45 107 -45 l44 0 5 -82 c4 -73 8
-84 32 -105 25 -22 35 -23 154 -23 143 1 169 11 181 73 5 25 23 44 76 84 l70
53 221 0 221 0 36 -27 c20 -16 52 -39 71 -53 22 -15 36 -33 36 -47 0 -12 12
-35 26 -52 l26 -31 123 0 c72 0 135 5 149 11 32 15 46 56 46 135 l0 64 44 0
c61 0 92 14 111 49 20 39 11 74 -26 105 -34 29 -37 46 -9 46 11 0 34 13 52 29
29 26 33 35 36 99 6 106 -13 138 -100 166 -10 3 -18 13 -18 23 0 28 -37 85
-82 125 l-42 37 26 12 c23 10 32 8 61 -10 92 -56 207 9 207 118 0 87 -68 149
-151 138 -34 -4 -52 -14 -81 -46 -33 -35 -38 -46 -38 -89 0 -42 -4 -52 -25
-66 -14 -9 -29 -15 -34 -12 -4 3 -11 31 -13 63 -12 124 -127 343 -186 351 -40
6 -36 -24 11 -85 71 -92 108 -186 122 -305 l7 -58 -41 0 -41 0 0 41 c0 60 -45
184 -91 249 -151 215 -453 285 -690 159 -69 -37 -158 -121 -195 -185 -40 -69
-74 -169 -74 -219 0 -45 0 -45 -35 -45 -34 0 -35 1 -35 39 0 235 194 471 440
532 77 19 250 17 329 -5 64 -17 161 -64 191 -91 22 -19 49 -19 57 1 17 44
-149 135 -291 159 -84 14 -150 17 -206 9z m176 -205 c184 -34 342 -203 361
-386 l6 -53 -179 0 -179 0 100 51 c55 28 106 56 113 63 15 15 6 46 -15 46 -8
0 -85 -36 -172 -80 l-159 -80 -88 0 -89 0 100 51 c109 56 131 74 114 96 -6 7
-16 13 -22 13 -6 0 -81 -36 -168 -80 -151 -76 -161 -80 -225 -80 l-67 0 6 56
c8 81 65 193 129 257 111 111 267 157 434 126z m-893 -280 c25 -30 22 -75 -8
-104 -65 -66 -168 14 -124 96 23 43 99 47 132 8z m1708 2 c33 -34 36 -56 12
-91 -22 -33 -33 -40 -64 -40 -87 0 -110 123 -29 153 32 12 53 6 81 -22z
m-1251 -268 c7 -21 21 -59 33 -86 l20 -47 286 2 286 3 29 83 28 82 164 0 163
0 37 -32 c57 -51 64 -77 64 -253 l0 -155 -669 0 c-706 0 -710 0 -678 -43 11
-16 71 -17 706 -19 653 -3 694 -4 705 -21 8 -14 8 -20 -4 -27 -9 -6 -326 -9
-840 -7 l-825 2 0 25 c0 25 1 25 105 30 104 5 105 5 105 30 0 22 -5 25 -42 28
-25 2 -43 8 -43 15 0 9 -2 9 -8 0 -5 -8 -12 -8 -25 2 -15 10 -18 30 -20 114
-1 55 1 101 6 101 4 0 7 7 7 16 0 8 -3 13 -7 11 -5 -3 -8 10 -9 28 0 24 5 37
20 45 17 9 18 10 2 5 -14 -4 -16 -2 -8 7 6 7 10 17 11 21 0 15 59 63 71 59 7
-3 10 0 6 6 -4 7 46 11 153 11 l159 2 12 -38z m-500 -238 c0 -47 -4 -85 -8
-85 -22 0 -32 29 -32 90 0 69 4 80 27 80 10 0 13 -21 13 -85z m1709 66 c15
-28 11 -120 -6 -137 -27 -27 -33 -14 -33 71 0 68 3 85 15 85 8 0 19 -9 24 -19z
m-1199 -415 c0 -2 -7 -9 -15 -16 -12 -10 -15 -10 -15 4 0 9 7 16 15 16 8 0 15
-2 15 -4z m690 -12 c0 -14 -3 -15 -17 -3 -10 7 -20 15 -22 16 -2 2 5 3 17 3
14 0 22 -6 22 -16z"/>
<path d="M455 2640 c-3 -5 -1 -10 4 -10 6 0 11 5 11 10 0 6 -2 10 -4 10 -3 0
-8 -4 -11 -10z"/>
<path d="M522 2605 c-43 -44 -72 -57 -72 -33 0 6 -3 8 -7 4 -5 -4 -1 -13 7
-19 9 -7 16 -30 16 -54 2 -42 7 -52 56 -103 58 -61 142 -61 205 0 67 66 65
149 -7 214 -36 32 -46 36 -96 36 -54 0 -59 -2 -102 -45z m163 -40 c54 -53 16
-145 -58 -145 -46 0 -87 40 -87 85 0 74 93 112 145 60z"/>
<path d="M1644 2606 c-41 -40 -44 -47 -44 -97 0 -139 153 -205 249 -107 63 64
59 151 -10 213 -35 31 -45 35 -95 35 -53 0 -59 -2 -100 -44z m160 -41 c56 -52
19 -145 -59 -145 -76 0 -113 90 -59 144 35 34 82 35 118 1z"/>
<path d="M904 2486 c-3 -8 -4 -23 -2 -33 3 -17 21 -18 282 -18 249 0 280 2
289 17 8 12 7 21 -2 32 -12 14 -50 16 -288 16 -229 0 -275 -2 -279 -14z"/>
<path d="M907 2383 c-13 -12 -7 -51 9 -57 9 -3 131 -6 273 -6 277 0 301 4 287
48 -7 22 -9 22 -285 22 -153 0 -281 -3 -284 -7z"/>
<path d="M3335 2935 c-131 -31 -181 -64 -131 -86 13 -6 27 -20 30 -31 6 -25
-19 -246 -40 -350 -8 -43 -12 -82 -9 -88 10 -16 76 -11 120 9 36 16 41 16 51
2 9 -12 31 -15 90 -16 44 0 91 4 107 8 33 9 36 35 6 60 -18 16 -19 25 -13 74
14 112 10 108 99 111 43 2 82 -1 87 -6 5 -5 4 -40 -3 -83 -10 -63 -16 -78 -43
-101 -29 -25 -30 -28 -15 -43 35 -36 211 -27 226 11 4 10 -4 24 -22 38 l-27
22 26 184 c15 101 31 190 37 197 6 6 19 15 30 18 28 9 24 44 -7 55 -33 13
-135 13 -169 0 -36 -14 -43 -39 -15 -60 21 -15 22 -22 15 -78 -4 -34 -11 -64
-15 -67 -17 -11 -100 -17 -136 -11 l-37 7 7 62 c5 54 10 66 38 88 59 49 12 75
-117 67 -44 -3 -71 -10 -82 -21 -16 -16 -15 -19 11 -46 27 -28 28 -32 22 -98
-19 -187 -65 -364 -83 -315 -3 6 -16 12 -29 12 -30 0 -30 6 -4 210 35 269 34
256 19 262 -8 3 -18 4 -24 3z"/>
<path d="M4495 2933 c-68 -17 -125 -46 -125 -63 0 -10 9 -21 19 -25 11 -3 22
-13 25 -22 7 -16 -7 -181 -25 -290 -17 -113 27 -165 141 -165 91 0 155 41 198
127 52 104 52 190 0 243 -41 43 -95 44 -160 3 -25 -16 -48 -27 -51 -25 -2 3
-1 24 3 47 13 70 16 170 5 172 -5 2 -19 0 -30 -2z m122 -251 c6 -4 17 -20 22
-35 17 -45 -13 -149 -57 -199 -22 -25 -69 -23 -83 3 -25 48 22 198 70 224 31
17 32 17 48 7z"/>
<path d="M2538 2918 c-33 -11 -36 -37 -8 -61 23 -20 23 -22 9 -158 -16 -165
-35 -235 -70 -260 -16 -11 -29 -27 -29 -34 0 -23 44 -29 220 -29 158 -1 167 0
209 24 62 35 85 69 85 128 0 63 -29 105 -87 125 l-42 14 35 15 c75 33 108 85
96 152 -14 73 -73 95 -256 95 -74 0 -147 -5 -162 -11z m277 -83 c31 -30 32
-66 1 -101 -20 -24 -32 -28 -90 -32 -66 -4 -67 -4 -62 19 3 13 8 42 11 64 11
65 20 75 71 75 34 0 51 -6 69 -25z m-10 -240 c28 -27 32 -63 11 -104 -18 -34
-54 -51 -110 -51 -61 0 -69 13 -61 105 l7 75 65 0 c55 0 67 -4 88 -25z"/>
<path d="M3054 2916 c-51 -36 -29 -96 35 -96 52 0 89 38 75 78 -8 22 -16 27
-49 30 -24 2 -49 -3 -61 -12z"/>
<path d="M3037 2750 c-80 -31 -96 -53 -52 -70 14 -5 28 -17 32 -27 4 -9 -4
-72 -16 -139 -12 -68 -20 -128 -16 -134 9 -15 70 -12 112 5 69 29 98 75 48 75
-22 0 -25 4 -25 38 0 20 7 78 15 127 22 137 21 145 -17 145 -18 -1 -55 -9 -81
-20z"/>
<path d="M3992 2748 c-63 -25 -74 -44 -42 -68 23 -17 23 -19 10 -96 -7 -44
-12 -99 -12 -122 1 -93 78 -119 185 -63 l56 29 10 -29 c12 -34 35 -37 84 -13
66 34 87 70 45 76 -21 3 -23 8 -20 48 1 25 10 89 18 144 18 110 14 121 -41
110 -48 -10 -74 -31 -79 -66 -16 -112 -27 -164 -43 -196 -16 -32 -23 -37 -53
-37 -33 0 -35 2 -38 38 -2 21 4 81 13 133 24 142 14 154 -93 112z"/>
</g>
</svg>
