<?xml version="1.0" encoding="utf-8"?>
<!-- Generator: Adobe Illustrator 24.3.0, SVG Export Plug-In . SVG Version: 6.00 Build 0)  -->
<svg version="1.1" id="Layer_1" xmlns="http://www.w3.org/2000/svg" xmlns:xlink="http://www.w3.org/1999/xlink" x="0px" y="0px"
	 viewBox="0 0 400 400" enable-background="new 0 0 400 400" xml:space="preserve">
<g>
	<g>
		<g>
			<path fill="#E5E5E4" d="M67.519,92.612c0-10.497,10.108-15.03,20.612-15.03h223.178c10.507,0,17.818,4.533,17.818,15.03v152.667
				H67.519V92.612z"/>
		</g>
		<g>
			<path fill="#FE6F80" d="M284.749,172.107l-19.227-32.478h-76.525l-25.891,32.144v24.873h25.891c0-0.105,0.049-0.193,0.062-0.292
				c-0.013-0.206-0.062-0.4-0.062-0.606c0-6.036,4.897-10.93,10.937-10.93c6.033,0,10.926,4.893,10.926,10.93
				c0,0.206-0.049,0.4-0.062,0.606c0.013,0.098,0.062,0.187,0.062,0.292h49.202c0-0.105,0.049-0.193,0.062-0.292
				c-0.013-0.206-0.062-0.4-0.062-0.606c0-6.036,4.893-10.93,10.93-10.93c6.033,0,10.93,4.893,10.93,10.93
				c0,0.206-0.049,0.4-0.062,0.606c0.013,0.098,0.062,0.187,0.062,0.292h22.049v-8.473
				C303.972,171.773,284.749,172.107,284.749,172.107z"/>
		</g>
		<g>
			<polygon fill="#FFA1AA" points="201.575,139.629 188.998,139.629 163.107,171.773 163.107,196.646 175.684,196.646 
				175.684,171.773 			"/>
		</g>
		<g>
			<rect x="184.907" y="275.464" fill="#E5E5E4" width="30.185" height="30.185"/>
		</g>
		<g>
			<rect x="151.368" y="305.649" fill="#FFDA88" width="93.91" height="20.124"/>
		</g>
		<g>
			<rect x="191.615" y="97.705" fill="#8EC0D6" width="87.202" height="10.062"/>
		</g>
		<g>
			<path fill="#C1C1C1" d="M210.861,195.749c0,6.036-4.893,10.937-10.926,10.937c-6.04,0-10.937-4.9-10.937-10.937
				c0-6.036,4.897-10.93,10.937-10.93C205.968,184.819,210.861,189.712,210.861,195.749z"/>
		</g>
		<g>
			<path fill="#C1C1C1" d="M281.923,195.749c0,6.036-4.897,10.937-10.93,10.937c-6.036,0-10.93-4.9-10.93-10.937
				c0-6.036,4.893-10.93,10.93-10.93C277.026,184.819,281.923,189.712,281.923,195.749z"/>
		</g>
		<g>
			<polygon fill="#8EC0D6" points="188.998,171.492 221.801,171.492 221.801,158.076 199.935,158.076 			"/>
		</g>
		<g>
			<polygon fill="#A9D2E0" points="200.367,158.076 189.43,171.492 199.492,171.492 210.429,158.076 			"/>
		</g>
		<g>
			<polygon fill="#8EC0D6" points="221.801,171.492 221.801,158.076 260.063,158.076 266.519,171.492 			"/>
		</g>
		<g>
			<path fill="#FFDA88" d="M88.131,275.464c-10.504,0-20.612-8.152-20.612-18.646v-11.539h261.607v11.539
				c0,10.494-7.311,18.646-17.818,18.646H88.131z"/>
		</g>
		<g>
			<path fill="#EFEFEF" d="M108.851,77.581H88.727c-10.504,0-20.612,4.533-20.612,15.03v152.667h20.124V92.612
				C88.239,82.114,98.347,77.581,108.851,77.581z"/>
		</g>
		<g>
			<path fill="#FFE2A9" d="M88.239,256.817v-11.539H68.115v11.539c0,10.494,10.108,18.646,20.612,18.646h20.124
				C98.347,275.464,88.239,267.311,88.239,256.817z"/>
		</g>
		<g>
			<path fill="#E5E5E4" d="M208.951,258.694c0,3.472-2.817,6.289-6.289,6.289c-3.472,0-6.289-2.817-6.289-6.289
				c0-3.472,2.817-6.289,6.289-6.289C206.135,252.405,208.951,255.222,208.951,258.694z"/>
		</g>
		<g>
			<rect x="88.482" y="196.102" fill="#C1C1C1" width="56.178" height="9.757"/>
		</g>
		<g>
			<rect x="88.482" y="175.769" fill="#C1C1C1" width="56.178" height="9.757"/>
		</g>
		<g>
			<rect x="100.744" y="136.288" fill="#C1C1C1" width="32.386" height="9.757"/>
		</g>
		<g>
			<rect x="88.482" y="155.442" fill="#C1C1C1" width="24.526" height="9.757"/>
		</g>
		<g>
			<rect x="120.134" y="155.442" fill="#C1C1C1" width="24.526" height="9.757"/>
		</g>
		<g>
			<path fill="#C1C1C1" d="M172.749,108.883h-9.505c-0.115,0-0.219,0.026-0.334,0.033c-0.121-0.007-0.239-0.036-0.363-0.036
				c-3.01,0-5.45,2.44-5.45,5.45v9.505c0,3.01,2.44,5.45,5.45,5.45c3.01,0,5.45-2.44,5.45-5.45v-4.052h4.753
				c3.01,0,5.45-2.44,5.45-5.45C178.199,111.324,175.759,108.883,172.749,108.883z"/>
		</g>
		<g>
			<path fill="#C1C1C1" d="M314.479,124.183v-9.505c0-0.111-0.026-0.216-0.033-0.334c0.007-0.118,0.04-0.236,0.04-0.36
				c0-3.013-2.443-5.45-5.45-5.45h-9.505c-3.013,0-5.45,2.437-5.45,5.45c0,3.007,2.437,5.45,5.45,5.45h4.048v4.749
				c0,3.013,2.443,5.45,5.45,5.45C312.043,129.633,314.479,127.196,314.479,124.183z"/>
		</g>
		<g>
			<path fill="#C1C1C1" d="M298.833,230.788h9.505c0.114,0,0.219-0.026,0.334-0.033c0.121,0.007,0.239,0.036,0.364,0.036
				c3.01,0,5.45-2.44,5.45-5.45v-9.505c0-3.01-2.44-5.45-5.45-5.45c-3.01,0-5.45,2.44-5.45,5.45v4.051h-4.752
				c-3.01,0-5.45,2.44-5.45,5.45C293.383,228.348,295.823,230.788,298.833,230.788z"/>
		</g>
		<g>
			<path fill="#C1C1C1" d="M157.103,215.489v9.505c0,0.112,0.026,0.216,0.033,0.334c-0.006,0.118-0.039,0.236-0.039,0.36
				c0,3.013,2.443,5.45,5.45,5.45h9.505c3.013,0,5.45-2.437,5.45-5.45c0-3.007-2.437-5.45-5.45-5.45h-4.048v-4.749
				c0-3.014-2.444-5.45-5.45-5.45C159.54,210.039,157.103,212.476,157.103,215.489z"/>
		</g>
		<g>
			<rect x="184.907" y="275.464" fill="#EFEFEF" width="13.416" height="30.185"/>
		</g>
		<g>
			<rect x="151.368" y="305.649" fill="#FFE2A9" width="16.278" height="20.124"/>
		</g>
		<g>
			<rect x="221.801" y="158.076" fill="#A9D2E0" width="7.966" height="13.416"/>
		</g>
		<g>
			<path fill="#D1D1D1" d="M195.935,195.749c0-4.861,3.193-8.928,7.582-10.35c-1.064-0.347-2.178-0.58-3.354-0.58
				c-6.04,0-10.936,4.893-10.936,10.93c0,6.036,4.896,10.937,10.936,10.937c1.176,0,2.289-0.236,3.354-0.58
				C199.129,204.68,195.935,200.609,195.935,195.749z"/>
		</g>
		<g>
			<path fill="#D1D1D1" d="M266.08,195.749c0-4.861,3.194-8.928,7.582-10.35c-1.064-0.347-2.178-0.58-3.354-0.58
				c-6.04,0-10.937,4.893-10.937,10.93c0,6.036,4.897,10.937,10.937,10.937c1.176,0,2.289-0.236,3.354-0.58
				C269.273,204.68,266.08,200.609,266.08,195.749z"/>
		</g>
	</g>
	<g>
		<g>
			<path fill="#161616" d="M216.77,309.003h-30.185c-2.778,0-5.031-2.253-5.031-5.031v-30.185c0-2.778,2.253-5.031,5.031-5.031
				h30.185c2.777,0,5.031,2.253,5.031,5.031v30.185C221.801,306.75,219.547,309.003,216.77,309.003z M191.615,298.941h20.124
				v-20.124h-20.124V298.941z"/>
		</g>
		<g>
			<path fill="#161616" d="M246.955,329.127h-93.91c-2.777,0-5.031-2.254-5.031-5.031v-20.124c0-2.777,2.253-5.031,5.031-5.031
				h93.91c2.777,0,5.031,2.253,5.031,5.031v20.124C251.986,326.873,249.733,329.127,246.955,329.127z M158.076,319.065h83.849
				v-10.062h-83.849V319.065z"/>
		</g>
		<g>
			<rect x="191.615" y="97.705" fill="#161616" width="87.202" height="10.062"/>
		</g>
		<g>
			<path fill="#161616" d="M199.934,211.716c-8.804,0-15.967-7.163-15.967-15.967c0-8.801,7.163-15.961,15.967-15.961
				c8.798,0,15.958,7.16,15.958,15.961C215.892,204.553,208.732,211.716,199.934,211.716z M199.934,189.85
				c-3.256,0-5.905,2.646-5.905,5.899c0,3.256,2.65,5.905,5.905,5.905c3.252,0,5.896-2.65,5.896-5.905
				C205.83,192.496,203.187,189.85,199.934,189.85z"/>
		</g>
		<g>
			<path fill="#161616" d="M270.993,211.716c-8.801,0-15.961-7.163-15.961-15.967c0-8.801,7.16-15.961,15.961-15.961
				c8.801,0,15.961,7.16,15.961,15.961C286.953,204.553,279.794,211.716,270.993,211.716z M270.993,189.85
				c-3.252,0-5.899,2.646-5.899,5.899c0,3.256,2.647,5.905,5.899,5.905s5.899-2.65,5.899-5.905
				C276.892,192.496,274.245,189.85,270.993,189.85z"/>
		</g>
		<g>
			<path fill="#161616" d="M223.478,174.845h-34.479c-1.942,0-3.711-1.117-4.543-2.872c-0.835-1.756-0.583-3.832,0.642-5.339
				l10.936-13.416c0.956-1.169,2.388-1.85,3.901-1.85h23.543c2.777,0,5.031,2.253,5.031,5.031v13.416
				C228.508,172.592,226.255,174.845,223.478,174.845z M199.591,164.784h18.856v-3.354h-16.121L199.591,164.784z"/>
		</g>
		<g>
			<path fill="#161616" d="M266.519,174.845h-43.041c-2.778,0-5.031-2.253-5.031-5.031v-13.416c0-2.777,2.253-5.031,5.031-5.031
				h36.585c1.932,0,3.695,1.107,4.533,2.85l6.456,13.416c0.75,1.559,0.648,3.393-0.275,4.857
				C269.856,173.958,268.248,174.845,266.519,174.845z M228.508,164.784h30.005l-1.611-3.354h-28.394V164.784z"/>
		</g>
		<g>
			<path fill="#161616" d="M330.804,248.632H69.196c-2.777,0-5.031-2.253-5.031-5.031V137.952c0-2.777,2.253-5.031,5.031-5.031
				c2.778,0,5.031,2.253,5.031,5.031V238.57h251.545V92.612c0-8.067-7.265-11.677-14.464-11.677H88.131
				c-6.413,0-13.904,3.059-13.904,11.677v25.217c0,2.778-2.253,5.031-5.031,5.031c-2.777,0-5.031-2.253-5.031-5.031V92.612
				c0-12.597,10.078-21.738,23.966-21.738h223.178c14.212,0,24.526,9.142,24.526,21.738v150.99
				C335.835,246.379,333.581,248.632,330.804,248.632z"/>
		</g>
		<g>
			<path fill="#161616" d="M311.309,278.818h-15.722c-2.778,0-5.031-2.254-5.031-5.031c0-2.778,2.253-5.031,5.031-5.031h15.722
				c6.967,0,14.464-3.737,14.464-11.939v-8.185H74.227v8.185c0,8.247,6.983,11.939,13.904,11.939H272.11
				c2.777,0,5.031,2.253,5.031,5.031c0,2.777-2.254,5.031-5.031,5.031H88.131c-13.887,0-23.966-9.253-23.966-22v-13.216
				c0-2.777,2.253-5.031,5.031-5.031h261.607c2.777,0,5.031,2.253,5.031,5.031v13.216
				C335.835,269.358,325.291,278.818,311.309,278.818z"/>
		</g>
		<g>
			<path fill="#161616" d="M208.951,258.694c0,3.472-2.817,6.289-6.289,6.289c-3.472,0-6.289-2.817-6.289-6.289
				c0-3.472,2.817-6.289,6.289-6.289C206.135,252.405,208.951,255.222,208.951,258.694z"/>
		</g>
		<g>
			<rect x="88.482" y="196.102" fill="#161616" width="56.178" height="9.757"/>
		</g>
		<g>
			<rect x="88.482" y="175.769" fill="#161616" width="56.178" height="9.757"/>
		</g>
		<g>
			<rect x="100.744" y="136.288" fill="#161616" width="32.386" height="9.757"/>
		</g>
		<g>
			<rect x="88.482" y="155.442" fill="#161616" width="24.526" height="9.757"/>
		</g>
		<g>
			<rect x="120.134" y="155.442" fill="#161616" width="24.526" height="9.757"/>
		</g>
		<g>
			<path fill="#161616" d="M172.749,108.883h-9.505c-0.115,0-0.219,0.026-0.334,0.033c-0.121-0.007-0.239-0.036-0.363-0.036
				c-3.01,0-5.45,2.44-5.45,5.45v9.505c0,3.01,2.44,5.45,5.45,5.45c3.01,0,5.45-2.44,5.45-5.45v-4.052h4.753
				c3.01,0,5.45-2.44,5.45-5.45C178.199,111.324,175.759,108.883,172.749,108.883z"/>
		</g>
		<g>
			<path fill="#161616" d="M314.479,124.183v-9.505c0-0.111-0.026-0.216-0.033-0.334c0.007-0.118,0.04-0.236,0.04-0.36
				c0-3.013-2.443-5.45-5.45-5.45h-9.505c-3.013,0-5.45,2.437-5.45,5.45c0,3.007,2.437,5.45,5.45,5.45h4.048v4.749
				c0,3.013,2.443,5.45,5.45,5.45C312.043,129.633,314.479,127.196,314.479,124.183z"/>
		</g>
		<g>
			<path fill="#161616" d="M298.833,230.788h9.505c0.114,0,0.219-0.026,0.334-0.033c0.121,0.007,0.239,0.036,0.364,0.036
				c3.01,0,5.45-2.44,5.45-5.45v-9.505c0-3.01-2.44-5.45-5.45-5.45c-3.01,0-5.45,2.44-5.45,5.45v4.051h-4.752
				c-3.01,0-5.45,2.44-5.45,5.45C293.383,228.348,295.823,230.788,298.833,230.788z"/>
		</g>
		<g>
			<path fill="#161616" d="M157.103,215.489v9.505c0,0.112,0.026,0.216,0.033,0.334c-0.006,0.118-0.039,0.236-0.039,0.36
				c0,3.013,2.443,5.45,5.45,5.45h9.505c3.013,0,5.45-2.437,5.45-5.45c0-3.007-2.437-5.45-5.45-5.45h-4.048v-4.749
				c0-3.014-2.444-5.45-5.45-5.45C159.54,210.039,157.103,212.476,157.103,215.489z"/>
		</g>
		<g>
			<path fill="#161616" d="M303.972,201.677h-22.05c-2.483,0-4.543-1.798-4.956-4.16c-0.039-0.177-0.075-0.357-0.095-0.498
				c-0.043-0.327-0.052-0.655-0.033-0.983c0.01-0.167,0.029-0.331,0.049-0.495c-0.108-3.158-2.712-5.693-5.896-5.693
				c-3.19,0-5.797,2.545-5.896,5.712c0.02,0.177,0.042,0.4,0.049,0.475c0.02,0.328,0.01,0.655-0.033,0.983
				c-0.026,0.187-0.062,0.37-0.105,0.55c-0.432,2.339-2.483,4.107-4.946,4.107h-49.202c-2.483,0-4.543-1.798-4.955-4.16
				c-0.039-0.177-0.075-0.357-0.095-0.498c-0.043-0.327-0.052-0.655-0.033-0.983c0.01-0.167,0.029-0.331,0.049-0.495
				c-0.108-3.158-2.709-5.693-5.892-5.693c-3.193,0-5.804,2.545-5.902,5.712c0.02,0.177,0.043,0.4,0.049,0.475
				c0.02,0.328,0.01,0.655-0.033,0.983c-0.026,0.187-0.062,0.37-0.105,0.55c-0.432,2.339-2.483,4.107-4.946,4.107h-25.892
				c-2.777,0-5.031-2.254-5.031-5.031v-24.873c0-1.15,0.393-2.263,1.114-3.157l25.892-32.144c0.953-1.186,2.394-1.873,3.917-1.873
				h76.525c1.779,0,3.423,0.937,4.33,2.47l17.857,30.163c3.924,0.4,10.71,1.811,15.659,6.675c3.685,3.622,5.634,8.555,5.634,14.267
				v8.473C309.003,199.423,306.75,201.677,303.972,201.677z M286.41,191.615h12.532v-3.442c0-3.036-0.858-5.355-2.624-7.091
				c-3.383-3.324-9.646-3.937-11.48-3.943c-1.828,0.01-3.495-0.911-4.418-2.47l-17.765-30.009h-71.248l-23.268,28.888v18.067h16.373
				c1.824-6.803,8.048-11.827,15.423-11.827c7.37,0,13.589,5.024,15.414,11.827h40.228c1.824-6.803,8.044-11.827,15.417-11.827
				C278.366,179.788,284.585,184.812,286.41,191.615z"/>
		</g>
	</g>
</g>
</svg>
