<?xml version="1.0" encoding="utf-8"?>
<!-- Generator: Adobe Illustrator 16.0.0, SVG Export Plug-In . SVG Version: 6.00 Build 0)  -->
<!DOCTYPE svg PUBLIC "-//W3C//DTD SVG 1.1//EN" "http://www.w3.org/Graphics/SVG/1.1/DTD/svg11.dtd">
<svg version="1.1" id="Layer_1" xmlns="http://www.w3.org/2000/svg" xmlns:xlink="http://www.w3.org/1999/xlink" x="0px" y="0px"
	 width="128px" height="128px" viewBox="0 0 128 128" enable-background="new 0 0 128 128" xml:space="preserve">
<g>
	<g>
		<path fill="#282D33" d="M37.612,37.226c-3.756,0-6.812-3.074-6.812-6.853c0-3.779,3.056-6.854,6.812-6.854
			c3.757,0,6.813,3.074,6.813,6.854C44.425,34.151,41.369,37.226,37.612,37.226z M37.612,27.524c-1.548,0-2.807,1.277-2.807,2.849
			c0,1.569,1.259,2.848,2.807,2.848s2.808-1.278,2.808-2.848C40.42,28.802,39.16,27.524,37.612,27.524z"/>
	</g>
	<g>
		<rect x="70.079" y="27.765" fill="#282D33" width="55.317" height="4.005"/>
	</g>
	<g>
		<path fill="#282D33" d="M25.33,46.679c-3.502-4.772-5.353-10.411-5.353-16.306c0-15.147,12.227-27.471,27.255-27.471
			c10.324,0,19.743,5.907,24.351,15.158h50.569L128,25.429v9.096l-8.424,5.162l-9.323,2.446l-9.545-2.504l-9.544,2.504l-9.547-2.504
			l-9.541,2.503l-0.209-0.054c-0.751,1.593-1.67,3.134-2.743,4.599l-3.23-2.365c1.233-1.685,2.227-3.479,2.953-5.334l0.647-1.657
			l2.578,0.673l9.545-2.505l9.547,2.504l9.544-2.504l9.545,2.504l7.735-2.028l6.007-3.683v-5.457l-3.777-4.76H69.005l-0.527-1.195
			c-3.731-8.482-12.07-13.963-21.245-13.963c-12.82,0-23.25,10.527-23.25,23.467c0,5.037,1.582,9.855,4.576,13.937L25.33,46.679z"/>
	</g>
	<g>
		<g>
			<path fill="#282D33" d="M78.706,62.554h-4.004c0-0.514-0.055-1.034-0.163-1.546l3.919-0.825
				C78.623,60.966,78.706,61.764,78.706,62.554z"/>
		</g>
		<g>
			<path fill="#282D33" d="M73.473,58.497c-0.521-0.781-1.181-1.443-1.956-1.969l2.245-3.315c1.205,0.815,2.228,1.845,3.039,3.056
				L73.473,58.497z M68.974,55.455c-0.47-0.097-0.953-0.146-1.44-0.146h-1.709v-4.004h1.711c0.758,0,1.512,0.077,2.244,0.228
				L68.974,55.455z M62.26,55.309h-3.565v-4.004h3.565V55.309z"/>
		</g>
		<g>
			<rect x="53.494" y="51.305" fill="#282D33" width="1.97" height="4.004"/>
		</g>
	</g>
	<g>
		<g>
			<rect x="52.041" y="51.307" fill="#282D33" width="1.971" height="4.004"/>
		</g>
		<g>
			<path fill="#282D33" d="M48.237,55.311h-3.866v-4.004h3.866V55.311z M40.505,55.311h-3.866v-4.004h3.866V55.311z M32.772,55.311
				h-3.866v-4.004h3.866V55.311z M25.041,55.311h-3.866v-4.004h3.866V55.311z M17.309,55.311h-3.866v-4.004h3.866V55.311z
				 M9.078,54.862c-1.485-0.409-2.869-1.085-4.113-2.008l2.386-3.217c0.846,0.628,1.786,1.087,2.794,1.365L9.078,54.862z
				 M1.849,49.516c-0.831-1.298-1.412-2.721-1.728-4.229l3.92-0.819c0.216,1.03,0.612,2.002,1.18,2.889L1.849,49.516z M3.958,41.339
				L0,40.731c0.233-1.524,0.737-2.977,1.497-4.315l3.483,1.975C4.462,39.305,4.118,40.297,3.958,41.339z M6.983,35.997l-2.557-3.083
				c1.193-0.989,2.537-1.739,3.996-2.229l1.276,3.796C8.709,34.813,7.796,35.323,6.983,35.997z M16.732,34.04h-3.865v-4.005h3.865
				V34.04z"/>
		</g>
		<g>
			<rect x="19.394" y="30.035" fill="#282D33" width="1.97" height="4.005"/>
		</g>
	</g>
	<g>
		<g>
			<g>
				<g>
					<path fill="#282D33" d="M50.476,81.778h-4.005c0-0.704-0.561-1.277-1.248-1.277h-6.502v-4.004h6.502
						C48.119,76.497,50.476,78.866,50.476,81.778z"/>
				</g>
				<g>
					<path fill="#282D33" d="M109.333,81.779h-4.004c0-2.911,2.354-5.28,5.248-5.28h6.504v4.004h-6.504
						C109.892,80.503,109.333,81.075,109.333,81.779z"/>
				</g>
			</g>
			<g>
				<path fill="#282D33" d="M107.854,81.674l-5.491-14.938c-0.085-0.231-0.524-0.537-0.772-0.537H54.213
					c-0.194,0-0.55,0.266-0.605,0.452l-4.383,14.896l-3.842-1.131l4.383-14.895c0.558-1.897,2.469-3.328,4.447-3.328h47.377
					c1.922,0,3.869,1.358,4.531,3.161l5.49,14.936L107.854,81.674z"/>
			</g>
			<g>
				<g>
					<path fill="#282D33" d="M46.506,125.098h-3.593c-4.5,0-8.162-3.684-8.162-8.213v-6.891h4.005v6.891
						c0,2.32,1.865,4.208,4.157,4.208h3.593c2.292,0,4.157-1.888,4.157-4.208v-6.891h4.004v6.891
						C54.667,121.414,51.006,125.098,46.506,125.098z"/>
				</g>
				<g>
					<path fill="#282D33" d="M112.89,125.098h-3.594c-4.5,0-8.161-3.684-8.161-8.213v-5.02h4.005v5.02
						c0,2.32,1.864,4.208,4.156,4.208h3.594c2.292,0,4.158-1.888,4.158-4.208v-10.004h4.004v10.004
						C121.052,121.414,117.391,125.098,112.89,125.098z"/>
				</g>
			</g>
			<g>
				<g>
					<path fill="#282D33" d="M116.577,113.557H39.225c-2.467,0-4.474-2.017-4.474-4.495V92.402c0-1.934,1.085-4.357,2.522-5.639
						l6.56-5.845c1.381-1.229,3.812-2.158,5.656-2.158h56.822c1.842,0,4.273,0.929,5.654,2.158l6.563,5.845
						c1.439,1.285,2.523,3.708,2.523,5.637v16.661C121.052,111.54,119.045,113.557,116.577,113.557z M49.489,82.766
						c-0.862,0-2.345,0.566-2.991,1.143l-6.561,5.845c-0.596,0.532-1.182,1.845-1.182,2.649v16.659c0,0.266,0.215,0.491,0.469,0.491
						h77.353c0.255,0,0.471-0.226,0.471-0.491V92.4c0-0.802-0.587-2.115-1.185-2.649l-6.562-5.843
						c-0.647-0.576-2.129-1.143-2.99-1.143H49.489z"/>
				</g>
				<g>
					<path fill="#282D33" d="M116.577,113.557H39.225c-2.467,0-4.474-2.017-4.474-4.495V92.402c0-1.934,1.085-4.357,2.522-5.639
						l6.56-5.845c1.381-1.229,3.812-2.158,5.656-2.158h56.822c1.842,0,4.273,0.929,5.654,2.158l6.563,5.845
						c1.439,1.285,2.523,3.708,2.523,5.637v16.661C121.052,111.54,119.045,113.557,116.577,113.557z M49.489,82.766
						c-0.862,0-2.345,0.566-2.991,1.143l-6.561,5.845c-0.596,0.532-1.182,1.845-1.182,2.649v16.659c0,0.266,0.215,0.491,0.469,0.491
						h77.353c0.255,0,0.471-0.226,0.471-0.491V92.4c0-0.802-0.587-2.115-1.185-2.649l-6.562-5.843
						c-0.647-0.576-2.129-1.143-2.99-1.143H49.489z"/>
				</g>
			</g>
			<g>
				<path fill="#282D33" d="M102.143,113.556H54.915v-6.86c0-3.165,2.429-5.741,5.415-5.741h36.397c2.985,0,5.415,2.576,5.415,5.741
					V113.556z M58.919,109.552h39.219v-2.856c0-0.958-0.632-1.737-1.41-1.737H60.33c-0.765,0-1.411,0.796-1.411,1.737V109.552z"/>
			</g>
			<g>
				<rect x="60.214" y="92.645" fill="#282D33" width="36.632" height="4.005"/>
			</g>
			<g>
				<g>
					<rect x="42.688" y="102.198" fill="#282D33" width="6.593" height="4.005"/>
				</g>
				<g>
					<rect x="107.366" y="102.198" fill="#282D33" width="6.592" height="4.005"/>
				</g>
			</g>
			<g>
				<g>
					<rect x="42.688" y="92.645" fill="#282D33" width="11.536" height="4.005"/>
				</g>
			</g>
			<g>
				<g>
					<rect x="102.422" y="92.645" fill="#282D33" width="11.536" height="4.005"/>
				</g>
			</g>
		</g>
	</g>
</g>
</svg>
